<svg id="visual" viewBox="0 0 960 540" width="960" height="540" xmlns="http://www.w3.org/2000/svg" xmlns:xlink="http://www.w3.org/1999/xlink" version="1.1"><rect x="0" y="0" width="960" height="540" fill="#001220"></rect><defs><linearGradient id="grad1_0" x1="43.8%" y1="0%" x2="100%" y2="100%"><stop offset="14.444444444444446%" stop-color="#fbae3c" stop-opacity="1"></stop><stop offset="85.55555555555554%" stop-color="#fbae3c" stop-opacity="1"></stop></linearGradient></defs><defs><linearGradient id="grad1_1" x1="43.8%" y1="0%" x2="100%" y2="100%"><stop offset="14.444444444444446%" stop-color="#fbae3c" stop-opacity="1"></stop><stop offset="85.55555555555554%" stop-color="#eb7458" stop-opacity="1"></stop></linearGradient></defs><defs><linearGradient id="grad1_2" x1="43.8%" y1="0%" x2="100%" y2="100%"><stop offset="14.444444444444446%" stop-color="#b84e6c" stop-opacity="1"></stop><stop offset="85.55555555555554%" stop-color="#eb7458" stop-opacity="1"></stop></linearGradient></defs><defs><linearGradient id="grad1_3" x1="43.8%" y1="0%" x2="100%" y2="100%"><stop offset="14.444444444444446%" stop-color="#b84e6c" stop-opacity="1"></stop><stop offset="85.55555555555554%" stop-color="#713c69" stop-opacity="1"></stop></linearGradient></defs><defs><linearGradient id="grad1_4" x1="43.8%" y1="0%" x2="100%" y2="100%"><stop offset="14.444444444444446%" stop-color="#2d2b4c" stop-opacity="1"></stop><stop offset="85.55555555555554%" stop-color="#713c69" stop-opacity="1"></stop></linearGradient></defs><defs><linearGradient id="grad1_5" x1="43.8%" y1="0%" x2="100%" y2="100%"><stop offset="14.444444444444446%" stop-color="#2d2b4c" stop-opacity="1"></stop><stop offset="85.55555555555554%" stop-color="#001220" stop-opacity="1"></stop></linearGradient></defs><defs><linearGradient id="grad2_0" x1="0%" y1="0%" x2="56.3%" y2="100%"><stop offset="14.444444444444446%" stop-color="#fbae3c" stop-opacity="1"></stop><stop offset="85.55555555555554%" stop-color="#fbae3c" stop-opacity="1"></stop></linearGradient></defs><defs><linearGradient id="grad2_1" x1="0%" y1="0%" x2="56.3%" y2="100%"><stop offset="14.444444444444446%" stop-color="#eb7458" stop-opacity="1"></stop><stop offset="85.55555555555554%" stop-color="#fbae3c" stop-opacity="1"></stop></linearGradient></defs><defs><linearGradient id="grad2_2" x1="0%" y1="0%" x2="56.3%" y2="100%"><stop offset="14.444444444444446%" stop-color="#eb7458" stop-opacity="1"></stop><stop offset="85.55555555555554%" stop-color="#b84e6c" stop-opacity="1"></stop></linearGradient></defs><defs><linearGradient id="grad2_3" x1="0%" y1="0%" x2="56.3%" y2="100%"><stop offset="14.444444444444446%" stop-color="#713c69" stop-opacity="1"></stop><stop offset="85.55555555555554%" stop-color="#b84e6c" stop-opacity="1"></stop></linearGradient></defs><defs><linearGradient id="grad2_4" x1="0%" y1="0%" x2="56.3%" y2="100%"><stop offset="14.444444444444446%" stop-color="#713c69" stop-opacity="1"></stop><stop offset="85.55555555555554%" stop-color="#2d2b4c" stop-opacity="1"></stop></linearGradient></defs><defs><linearGradient id="grad2_5" x1="0%" y1="0%" x2="56.3%" y2="100%"><stop offset="14.444444444444446%" stop-color="#001220" stop-opacity="1"></stop><stop offset="85.55555555555554%" stop-color="#2d2b4c" stop-opacity="1"></stop></linearGradient></defs><g transform="translate(960, 0)"><path d="M0 540C-40.3 501 -80.5 462 -118.3 441.4C-156 420.9 -191.2 418.9 -240 415.7C-288.8 412.5 -351.1 408.2 -373.4 373.4C-395.6 338.5 -377.8 273 -401.8 232C-425.8 191 -491.6 174.4 -521.6 139.8C-551.6 105.2 -545.8 52.6 -540 0L0 0Z" fill="#131f37"></path><path d="M0 450C-33.6 417.5 -67.1 385 -98.6 367.9C-130 350.7 -159.4 349.1 -200 346.4C-240.6 343.8 -292.6 340.2 -311.1 311.1C-329.7 282.1 -314.9 227.5 -334.9 193.3C-354.9 159.1 -409.7 145.3 -434.7 116.5C-459.7 87.6 -454.8 43.8 -450 0L0 0Z" fill="#4d345e"></path><path d="M0 360C-26.8 334 -53.7 308 -78.9 294.3C-104 280.6 -127.5 279.2 -160 277.1C-192.5 275 -234.1 272.2 -248.9 248.9C-263.7 225.7 -251.9 182 -267.9 154.7C-283.9 127.3 -327.7 116.2 -347.7 93.2C-367.7 70.1 -363.9 35.1 -360 0L0 0Z" fill="#96446e"></path><path d="M0 270C-20.1 250.5 -40.3 231 -59.1 220.7C-78 210.4 -95.6 209.4 -120 207.8C-144.4 206.3 -175.5 204.1 -186.7 186.7C-197.8 169.2 -188.9 136.5 -200.9 116C-212.9 95.5 -245.8 87.2 -260.8 69.9C-275.8 52.6 -272.9 26.3 -270 0L0 0Z" fill="#d55e64"></path><path d="M0 180C-13.4 167 -26.8 154 -39.4 147.1C-52 140.3 -63.7 139.6 -80 138.6C-96.3 137.5 -117 136.1 -124.5 124.5C-131.9 112.8 -125.9 91 -133.9 77.3C-141.9 63.7 -163.9 58.1 -173.9 46.6C-183.9 35.1 -181.9 17.5 -180 0L0 0Z" fill="#f88f4a"></path><path d="M0 90C-6.7 83.5 -13.4 77 -19.7 73.6C-26 70.1 -31.9 69.8 -40 69.3C-48.1 68.8 -58.5 68 -62.2 62.2C-65.9 56.4 -63 45.5 -67 38.7C-71 31.8 -81.9 29.1 -86.9 23.3C-91.9 17.5 -91 8.8 -90 0L0 0Z" fill="#fbae3c"></path></g><g transform="translate(0, 540)"><path d="M0 -540C42.8 -512.8 85.6 -485.6 125 -466.5C164.4 -447.5 200.5 -436.6 245 -424.4C289.5 -412.1 342.5 -398.6 362 -362C381.6 -325.5 367.7 -265.8 394.9 -228C422.2 -190.2 490.6 -174.1 521.6 -139.8C552.6 -105.4 546.3 -52.7 540 0L0 0Z" fill="#131f37"></path><path d="M0 -450C35.7 -427.3 71.3 -404.7 104.2 -388.8C137 -372.9 167.1 -363.8 204.2 -353.6C241.3 -343.4 285.4 -332.2 301.7 -301.7C318 -271.2 306.4 -221.5 329.1 -190C351.8 -158.5 408.8 -145.1 434.7 -116.5C460.5 -87.8 455.3 -43.9 450 0L0 0Z" fill="#4d345e"></path><path d="M0 -360C28.5 -341.9 57.1 -323.7 83.3 -311C109.6 -298.3 133.7 -291 163.3 -282.9C193 -274.8 228.3 -265.7 241.4 -241.4C254.4 -217 245.1 -177.2 263.3 -152C281.4 -126.8 327 -116.1 347.7 -93.2C368.4 -70.3 364.2 -35.1 360 0L0 0Z" fill="#96446e"></path><path d="M0 -270C21.4 -256.4 42.8 -242.8 62.5 -233.3C82.2 -223.7 100.2 -218.3 122.5 -212.2C144.8 -206.1 171.3 -199.3 181 -181C190.8 -162.7 183.8 -132.9 197.5 -114C211.1 -95.1 245.3 -87.1 260.8 -69.9C276.3 -52.7 273.2 -26.3 270 0L0 0Z" fill="#d55e64"></path><path d="M0 -180C14.3 -170.9 28.5 -161.9 41.7 -155.5C54.8 -149.2 66.8 -145.5 81.7 -141.5C96.5 -137.4 114.2 -132.9 120.7 -120.7C127.2 -108.5 122.6 -88.6 131.6 -76C140.7 -63.4 163.5 -58 173.9 -46.6C184.2 -35.1 182.1 -17.6 180 0L0 0Z" fill="#f88f4a"></path><path d="M0 -90C7.1 -85.5 14.3 -80.9 20.8 -77.8C27.4 -74.6 33.4 -72.8 40.8 -70.7C48.3 -68.7 57.1 -66.4 60.3 -60.3C63.6 -54.2 61.3 -44.3 65.8 -38C70.4 -31.7 81.8 -29 86.9 -23.3C92.1 -17.6 91.1 -8.8 90 0L0 0Z" fill="#fbae3c"></path></g></svg>